# Blender 4.0.2
# www.blender.org
mtllib pistol.mtl
o Pistol
v -0.440000 -0.100000 -0.100000
v -0.480000 -0.100000 0.100000
v -0.440000 0.100000 -0.100000
v -0.480000 0.100000 0.100000
v 0.500000 -0.100000 -0.100000
v 0.500000 -0.100000 0.100000
v 0.500000 0.100000 -0.100000
v 0.500000 0.100000 0.100000
v 0.000000 0.100000 0.100000
v 0.000000 -0.100000 0.100000
v -0.250000 0.100000 -0.100000
v -0.250000 -0.100000 0.100000
v -0.250000 0.100000 0.100000
v -0.250000 -0.100000 -0.100000
v -0.125000 0.100000 0.100000
v -0.125000 -0.100000 -0.100000
v -0.125000 0.100000 -0.100000
v -0.125000 -0.100000 0.100000
v -0.062500 0.100000 0.100000
v -0.122500 -0.100000 -0.100000
v -0.122500 0.100000 -0.100000
v -0.062500 -0.100000 0.100000
v -0.250000 0.100000 -0.500000
v -0.125000 0.100000 -0.450000
v -0.250000 -0.100000 -0.500000
v -0.125000 -0.100000 -0.450000
v -0.500000 -0.100000 0.000000
v -0.500000 0.100000 0.000000
v 0.500000 0.100000 0.000000
v 0.500000 -0.100000 0.000000
v 0.000000 -0.100000 0.000000
v 0.000000 0.100000 0.000000
v -0.250000 0.100000 0.000000
v -0.250000 -0.100000 0.000000
v -0.125000 -0.100000 0.000000
v -0.125000 0.100000 0.000000
v -0.062500 -0.100000 0.000000
v -0.062500 0.100000 0.000000
v -0.500000 0.100000 -0.050000
v 0.500000 0.100000 -0.050000
v 0.500000 -0.100000 -0.050000
v 0.000000 -0.100000 -0.050000
v 0.000000 0.100000 -0.050000
v -0.250000 0.100000 -0.050000
v -0.250000 -0.100000 -0.050000
v -0.125000 -0.100000 -0.050000
v -0.125000 0.100000 -0.050000
v -0.062500 -0.100000 -0.050000
v -0.062500 0.100000 -0.050000
v -0.500000 -0.100000 -0.050000
v -0.122500 0.100000 -0.383323
v -0.125000 0.100000 -0.450000
v -0.125000 -0.100000 -0.450000
v -0.122500 -0.100000 -0.383323
v -0.450000 0.100000 -0.500000
v -0.492583 0.100000 -0.450553
v -0.492583 -0.100000 -0.450553
v -0.450000 -0.100000 -0.500000
v 0.020000 0.100000 -0.100000
v -0.020000 0.100000 -0.100000
v 0.000000 0.100000 -0.080000
v -0.020000 -0.100000 -0.100000
v 0.020000 -0.100000 -0.100000
v 0.000000 -0.100000 -0.080000
v -0.440000 0.000000 -0.100000
v -0.480000 -0.000000 0.100000
v 0.500000 0.000000 -0.100000
v 0.500000 -0.000000 0.100000
v 0.000000 -0.000000 0.100000
v -0.250000 -0.000000 0.100000
v -0.125000 -0.000000 0.100000
v -0.062500 -0.000000 0.100000
v -0.122500 0.000000 -0.100000
v -0.250000 0.000000 -0.500000
v -0.125000 0.000000 -0.450000
v 0.500000 -0.000000 0.000000
v -0.500000 -0.000000 0.000000
v -0.500000 0.000000 -0.050000
v 0.500000 0.000000 -0.050000
v -0.122500 0.000000 -0.383323
v -0.125000 0.000000 -0.450000
v -0.450000 0.000000 -0.500000
v -0.492583 0.000000 -0.450553
v 0.120000 0.000000 -0.100000
v 0.080000 0.000000 -0.100000
v -0.440000 -0.050000 -0.100000
v 0.500000 -0.050000 0.100000
v 0.000000 -0.050000 0.100000
v -0.250000 -0.050000 0.100000
v -0.125000 -0.050000 0.100000
v -0.062500 -0.050000 0.100000
v -0.122500 -0.050000 -0.100000
v -0.250000 -0.050000 -0.500000
v -0.125000 -0.050000 -0.450000
v 0.500000 -0.050000 0.000000
v 0.500000 -0.050000 -0.050000
v -0.122500 -0.050000 -0.383323
v -0.450000 -0.050000 -0.500000
v 0.020000 -0.050000 -0.100000
v -0.480000 -0.050000 0.100000
v 0.500000 -0.050000 -0.100000
v -0.500000 -0.050000 0.000000
v -0.500000 -0.050000 -0.050000
v -0.125000 -0.050000 -0.450000
v -0.492583 -0.050000 -0.450553
v -0.020000 -0.050000 -0.100000
v -0.480000 0.050000 0.100000
v 0.500000 0.050000 -0.100000
v -0.500000 0.050000 0.000000
v -0.500000 0.050000 -0.050000
v -0.125000 0.050000 -0.450000
v -0.492583 0.050000 -0.450553
v -0.020000 0.050000 -0.100000
v -0.440000 0.050000 -0.100000
v 0.500000 0.050000 0.100000
v 0.000000 0.050000 0.100000
v -0.250000 0.050000 0.100000
v -0.125000 0.050000 0.100000
v -0.062500 0.050000 0.100000
v -0.122500 0.050000 -0.100000
v -0.250000 0.050000 -0.500000
v -0.125000 0.050000 -0.450000
v 0.500000 0.050000 0.000000
v 0.500000 0.050000 -0.050000
v -0.122500 0.050000 -0.383323
v -0.450000 0.050000 -0.500000
v 0.020000 0.050000 -0.100000
v -0.440000 0.025000 -0.100000
v 0.500000 0.025000 0.100000
v 0.000000 0.025000 0.100000
v -0.250000 0.025000 0.100000
v -0.125000 0.025000 0.100000
v -0.062500 0.025000 0.100000
v -0.122500 0.025000 -0.100000
v -0.250000 0.025000 -0.500000
v -0.125000 0.025000 -0.450000
v 0.500000 0.025000 0.000000
v 0.500000 0.025000 -0.050000
v -0.122500 0.025000 -0.383323
v -0.450000 0.025000 -0.500000
v 0.120000 0.025000 -0.100000
v -0.480000 0.025000 0.100000
v 0.500000 0.025000 -0.100000
v -0.500000 0.025000 0.000000
v -0.500000 0.025000 -0.050000
v -0.125000 0.025000 -0.450000
v -0.492583 0.025000 -0.450553
v 0.080000 0.025000 -0.100000
v -0.480000 -0.025000 0.100000
v 0.500000 -0.025000 -0.100000
v -0.500000 -0.025000 0.000000
v -0.500000 -0.025000 -0.050000
v -0.125000 -0.025000 -0.450000
v -0.492583 -0.025000 -0.450553
v 0.080000 -0.025000 -0.100000
v -0.440000 -0.025000 -0.100000
v 0.500000 -0.025000 0.100000
v 0.000000 -0.025000 0.100000
v -0.250000 -0.025000 0.100000
v -0.125000 -0.025000 0.100000
v -0.062500 -0.025000 0.100000
v -0.122500 -0.025000 -0.100000
v -0.250000 -0.025000 -0.500000
v -0.125000 -0.025000 -0.450000
v 0.500000 -0.025000 0.000000
v 0.500000 -0.025000 -0.050000
v -0.122500 -0.025000 -0.383323
v -0.450000 -0.025000 -0.500000
v 0.120000 -0.025000 -0.100000
v 0.120000 0.025000 -0.260000
v 0.120000 0.000000 -0.260000
v 0.080000 -0.025000 -0.260000
v 0.080000 0.000000 -0.260000
v 0.080000 0.025000 -0.260000
v 0.120000 -0.025000 -0.260000
v 0.080000 -0.025000 -0.240000
v 0.120000 -0.025000 -0.240000
v 0.080000 0.025000 -0.240000
v 0.080000 0.000000 -0.240000
v 0.120000 0.000000 -0.240000
v 0.120000 0.025000 -0.240000
v -0.140000 -0.025000 -0.240000
v -0.140000 -0.025000 -0.260000
v -0.140000 0.000000 -0.260000
v -0.140000 0.025000 -0.260000
v -0.140000 0.025000 -0.240000
v -0.140000 0.000000 -0.240000
v -0.096875 0.100000 -0.100000
v -0.096875 -0.100000 -0.100000
v -0.071875 0.000000 -0.100000
v -0.096875 -0.050000 -0.100000
v -0.096875 0.050000 -0.100000
v -0.071875 0.025000 -0.100000
v -0.071875 -0.025000 -0.100000
v -0.109687 0.100000 -0.100000
v -0.109687 -0.100000 -0.100000
v -0.097188 0.000000 -0.100000
v -0.109687 -0.050000 -0.100000
v -0.109687 0.050000 -0.100000
v -0.097188 0.025000 -0.100000
v -0.097188 -0.025000 -0.100000
v -0.072500 0.025000 -0.200000
v -0.072500 0.000000 -0.200000
v -0.072500 -0.025000 -0.200000
v 0.140000 0.025000 -0.260000
v 0.140000 0.000000 -0.260000
v 0.140000 -0.025000 -0.260000
v 0.140000 -0.025000 -0.260000
v 0.140000 0.000000 -0.260000
v 0.140000 0.025000 -0.260000
vn -0.9806 -0.0000 0.1961
vn -0.0000 1.0000 -0.0000
vn 1.0000 -0.0000 -0.0000
vn -0.0000 -1.0000 -0.0000
vn -0.0000 -0.0000 -1.0000
vn -0.0000 -0.0000 1.0000
vn -0.9889 -0.0000 0.1483
vn 0.3714 -0.0000 -0.9285
vn -1.0000 -0.0000 -0.0000
vn -0.6402 -0.0000 -0.7682
vn 0.9993 -0.0000 -0.0375
vn -0.7577 -0.0000 -0.6526
vn 0.7071 -0.0000 0.7071
vn 0.9709 -0.0000 0.2397
vn -0.8944 -0.0000 -0.4472
vt 0.500000 0.187500
vt 0.625000 0.187500
vt 0.625000 0.250000
vt 0.500000 0.250000
vt 0.500000 0.375000
vt 0.625000 0.375000
vt 0.625000 0.500000
vt 0.500000 0.500000
vt 0.500000 0.687500
vt 0.625000 0.687500
vt 0.625000 0.750000
vt 0.500000 0.750000
vt 0.500000 0.937500
vt 0.625000 0.937500
vt 0.625000 1.000000
vt 0.500000 1.000000
vt 0.237643 0.687500
vt 0.247449 0.687500
vt 0.247449 0.750000
vt 0.237643 0.750000
vt 0.812500 0.687500
vt 0.875000 0.687500
vt 0.875000 0.750000
vt 0.812500 0.750000
vt 0.750000 0.687500
vt 0.750000 0.750000
vt 0.375000 0.750000
vt 0.437500 0.750000
vt 0.437500 0.875000
vt 0.400000 0.875000
vt 0.375000 0.870000
vt 0.625000 0.875000
vt 0.500000 0.875000
vt 0.500000 0.359375
vt 0.625000 0.359375
vt 0.625000 0.312500
vt 0.500000 0.312500
vt 0.375000 0.937500
vt 0.375000 1.000000
vt 0.375000 0.987500
vt 0.781250 0.687500
vt 0.781250 0.750000
vt 0.500000 0.906250
vt 0.625000 0.906250
vt 0.500000 0.890625
vt 0.625000 0.890625
vt 0.765625 0.687500
vt 0.765625 0.750000
vt 0.625000 0.343750
vt 0.500000 0.343750
vt 0.375000 0.187500
vt 0.375000 0.250000
vt 0.375000 0.312500
vt 0.375000 0.262500
vt 0.187500 0.687500
vt 0.218750 0.687500
vt 0.218750 0.750000
vt 0.187500 0.750000
vt 0.234375 0.687500
vt 0.234375 0.750000
vt 0.375000 0.343750
vt 0.218750 0.562500
vt 0.218750 0.593750
vt 0.218750 0.625000
vt 0.000000 0.000000
vt 0.218750 0.656250
vt 0.437500 0.343750
vt 0.437500 0.359375
vt 0.437500 0.890625
vt 0.437500 0.312500
vt 0.437500 0.906250
vt 0.437500 0.937500
vt 0.437500 0.250000
vt 0.437500 0.375000
vt 0.437500 1.000000
vt 0.437500 0.687500
vt 0.437500 0.500000
vt 0.437500 0.187500
vt 0.375000 0.359375
vt 0.400000 0.375000
vt 0.375000 0.372449
vt 0.375000 0.362643
vt 0.375000 0.361009
vt 0.375000 0.687500
vt 0.375000 0.877551
vt 0.400000 0.875000
vt 0.375000 0.890625
vt 0.375000 0.888991
vt 0.375000 0.887357
vt 0.255000 0.687500
vt 0.255000 0.750000
vt 0.375000 0.906250
vt 0.137500 0.687500
vt 0.137500 0.750000
vt 0.125000 0.750000
vt 0.125000 0.687500
vt 0.375000 0.375000
vt 0.375000 0.875000
vt 0.375000 0.380000
vt 0.400000 0.375000
vt 0.375000 0.500000
vt 0.247449 0.656250
vt 0.137500 0.593750
vt 0.187500 0.593750
vt 0.187500 0.625000
vt 0.137500 0.625000
vt 0.125000 0.625000
vt 0.125000 0.593750
vt 0.234375 0.593750
vt 0.234375 0.625000
vt 0.255000 0.593750
vt 0.375000 0.593750
vt 0.375000 0.625000
vt 0.255000 0.625000
vt 0.437500 0.593750
vt 0.437500 0.625000
vt 0.375000 0.093750
vt 0.437500 0.093750
vt 0.437500 0.125000
vt 0.375000 0.125000
vt 0.500000 0.093750
vt 0.500000 0.125000
vt 0.500000 0.593750
vt 0.500000 0.625000
vt 0.750000 0.593750
vt 0.765625 0.593750
vt 0.765625 0.625000
vt 0.750000 0.625000
vt 0.781250 0.593750
vt 0.781250 0.625000
vt 0.812500 0.593750
vt 0.812500 0.625000
vt 0.625000 0.593750
vt 0.625000 0.625000
vt 0.875000 0.593750
vt 0.875000 0.625000
vt 0.237643 0.593750
vt 0.247449 0.593750
vt 0.247449 0.625000
vt 0.237643 0.625000
vt 0.625000 0.093750
vt 0.625000 0.125000
vt 0.500000 0.000000
vt 0.625000 0.000000
vt 0.625000 0.062500
vt 0.500000 0.062500
vt 0.375000 0.000000
vt 0.375000 0.062500
vt 0.437500 0.000000
vt 0.437500 0.062500
vt 0.255000 0.656250
vt 0.137500 0.656250
vt 0.187500 0.656250
vt 0.125000 0.656250
vt 0.234375 0.656250
vt 0.375000 0.656250
vt 0.437500 0.656250
vt 0.500000 0.656250
vt 0.750000 0.656250
vt 0.765625 0.656250
vt 0.781250 0.656250
vt 0.812500 0.656250
vt 0.625000 0.656250
vt 0.875000 0.656250
vt 0.237643 0.656250
vt 0.625000 0.562500
vt 0.500000 0.562500
vt 0.237643 0.500000
vt 0.247449 0.500000
vt 0.247449 0.562500
vt 0.237643 0.562500
vt 0.812500 0.500000
vt 0.875000 0.500000
vt 0.875000 0.562500
vt 0.812500 0.562500
vt 0.750000 0.500000
vt 0.750000 0.562500
vt 0.781250 0.500000
vt 0.781250 0.562500
vt 0.765625 0.500000
vt 0.765625 0.562500
vt 0.187500 0.500000
vt 0.218750 0.500000
vt 0.187500 0.562500
vt 0.234375 0.500000
vt 0.234375 0.562500
vt 0.437500 0.562500
vt 0.375000 0.562500
vt 0.255000 0.500000
vt 0.255000 0.562500
vt 0.137500 0.500000
vt 0.137500 0.562500
vt 0.125000 0.562500
vt 0.125000 0.500000
vt 0.375000 0.156250
vt 0.437500 0.156250
vt 0.500000 0.156250
vt 0.625000 0.156250
vt 0.236009 0.625000
vt 0.236009 0.656250
vt 0.236009 0.562500
vt 0.236009 0.593750
vt 0.236009 0.500000
vt 0.236009 0.687500
vt 0.236009 0.750000
s 0
f 109/1/1 107/2/1 4/3/1 28/4/1
f 32/5/2 9/6/2 8/7/2 29/8/2
f 95/9/3 87/10/3 6/11/3 30/12/3
f 34/13/4 12/14/4 2/15/4 27/16/4
f 191/17/5 106/18/5 62/19/5 189/20/5
f 89/21/6 100/22/6 2/23/6 12/24/6
f 87/10/6 88/25/6 10/26/6 6/11/6
f 5/27/4 41/28/4 42/29/4 64/30/4 63/31/4
f 30/12/4 6/11/4 10/32/4 31/33/4
f 38/34/2 19/35/2 9/6/2 32/5/2
f 28/4/2 4/3/2 13/36/2 33/37/2
f 14/38/4 1/39/4 57/39/4 58/40/4 25/38/4
f 90/41/6 89/21/6 12/24/6 18/42/6
f 35/43/4 18/44/4 12/14/4 34/13/4
f 37/45/4 22/46/4 18/44/4 35/43/4
f 91/47/6 90/41/6 18/42/6 22/48/6
f 33/37/2 13/36/2 15/49/2 36/50/2
f 114/51/7 3/52/7 56/52/7 112/51/7
f 88/25/6 91/47/6 22/48/6 10/26/6
f 31/33/4 10/32/4 22/46/4 37/45/4
f 36/50/2 15/49/2 19/35/2 38/34/2
f 3/52/2 11/53/2 23/53/2 55/54/2 56/52/2
f 93/55/8 94/56/8 26/57/8 25/58/8
f 92/59/3 20/60/3 54/60/3 97/59/3
f 11/53/2 17/61/2 24/61/2 23/53/2
f 24/61/6 52/61/6 111/62/6 146/63/6 75/64/6 81/64/6 104/65/6 164/66/6 153/66/6 53/65/6
f 47/67/2 36/50/2 38/34/2 49/68/2
f 42/29/4 31/33/4 37/45/4 48/69/4
f 44/70/2 33/37/2 36/50/2 47/67/2
f 48/69/4 37/45/4 35/43/4 46/71/4
f 46/71/4 35/43/4 34/13/4 45/72/4
f 39/73/2 28/4/2 33/37/2 44/70/2
f 49/68/2 38/34/2 32/5/2 43/74/2
f 41/28/4 30/12/4 31/33/4 42/29/4
f 45/72/4 34/13/4 27/16/4 50/75/4
f 96/76/3 95/9/3 30/12/3 41/28/3
f 43/74/2 32/5/2 29/8/2 40/77/2
f 110/78/9 109/1/9 28/4/9 39/73/9
f 114/51/10 110/78/10 39/73/10 3/52/10
f 21/79/2 49/68/2 43/74/2 61/80/2 60/81/2 188/82/2 195/83/2
f 101/84/3 96/76/3 41/28/3 5/27/3
f 14/38/4 45/72/4 50/75/4 1/39/4
f 62/85/4 64/86/4 42/29/4 48/69/4 20/87/4 196/88/4 189/89/4
f 99/90/5 101/84/5 5/27/5 63/91/5
f 3/52/2 39/73/2 44/70/2 11/53/2
f 16/92/4 46/71/4 45/72/4 14/38/4
f 20/87/4 48/69/4 46/71/4 16/92/4
f 11/53/2 44/70/2 47/67/2 17/61/2
f 17/61/2 47/67/2 49/68/2 21/79/2
f 97/59/11 54/60/11 53/57/11 104/56/11
f 17/61/2 21/79/2 51/79/2 52/61/2 24/61/2
f 98/93/12 58/94/12 57/95/12 105/96/12
f 98/93/5 93/55/5 25/58/5 58/94/5
f 16/92/4 14/38/4 25/38/4 26/92/4 53/92/4 54/87/4 20/87/4
f 59/97/2 60/81/2 61/80/2
f 62/85/4 63/98/4 64/86/4
f 99/90/5 63/91/5 62/19/5 106/18/5
f 59/99/2 61/100/2 43/74/2 40/77/2 7/101/2
f 172/102/4 176/102/4 182/102/4 183/102/4
f 140/103/5 135/104/5 74/105/5 82/106/5
f 140/103/12 82/106/12 83/107/12 147/108/12
f 139/109/11 80/110/11 81/64/11 146/63/11
f 141/111/5 143/112/5 67/113/5 84/114/5
f 143/112/3 138/115/3 79/116/3 67/113/3
f 156/117/10 152/118/10 78/119/10 65/120/10
f 152/118/9 151/121/9 77/122/9 78/119/9
f 138/115/3 137/123/3 76/124/3 79/116/3
f 136/63/6 146/63/6 81/64/6 75/64/6
f 134/109/3 73/110/3 80/110/3 139/109/3
f 135/104/8 136/63/8 75/64/8 74/105/8
f 130/125/6 133/126/6 72/127/6 69/128/6
f 156/117/7 65/120/7 83/120/7 154/117/7
f 133/126/6 132/129/6 71/130/6 72/127/6
f 132/129/6 131/131/6 70/132/6 71/130/6
f 129/133/6 130/125/6 69/128/6 68/134/6
f 131/131/6 142/135/6 66/136/6 70/132/6
f 193/137/5 148/138/5 85/139/5 190/140/5
f 137/123/3 129/133/3 68/134/3 76/124/3
f 151/121/1 149/141/1 66/142/1 77/122/1
f 27/143/1 2/144/1 100/145/1 102/146/1
f 1/147/7 86/148/7 105/148/7 57/147/7
f 50/149/9 27/143/9 102/146/9 103/150/9
f 1/147/10 50/149/10 103/150/10 86/148/10
f 169/151/5 99/90/5 106/18/5 155/102/5
f 168/152/5 163/153/5 93/55/5 98/93/5
f 168/152/12 98/93/12 105/96/12 154/154/12
f 167/155/11 97/59/11 104/56/11 153/66/11
f 169/151/5 150/156/5 101/84/5 99/90/5
f 150/156/3 166/157/3 96/76/3 101/84/3
f 166/157/3 165/158/3 95/9/3 96/76/3
f 162/155/3 92/59/3 97/59/3 167/155/3
f 163/153/8 164/66/8 94/56/8 93/55/8
f 158/159/6 161/160/6 91/47/6 88/25/6
f 161/160/6 160/161/6 90/41/6 91/47/6
f 160/161/6 159/162/6 89/21/6 90/41/6
f 157/163/6 158/159/6 88/25/6 87/10/6
f 159/162/6 149/164/6 100/22/6 89/21/6
f 194/165/5 155/102/5 106/18/5 191/17/5
f 165/158/3 157/163/3 87/10/3 95/9/3
f 29/8/3 8/7/3 115/166/3 123/167/3
f 188/168/5 60/169/5 113/170/5 192/171/5
f 13/172/6 4/173/6 107/174/6 117/175/6
f 8/7/6 9/176/6 116/177/6 115/166/6
f 15/178/6 13/172/6 117/175/6 118/179/6
f 19/180/6 15/178/6 118/179/6 119/181/6
f 9/176/6 19/180/6 119/181/6 116/177/6
f 23/182/8 24/183/8 122/62/8 121/184/8
f 21/185/3 120/186/3 125/186/3 51/185/3
f 40/77/3 29/8/3 123/167/3 124/187/3
f 7/101/3 40/77/3 124/187/3 108/188/3
f 59/189/5 7/101/5 108/188/5 127/190/5
f 51/185/11 125/186/11 111/62/11 52/183/11
f 55/191/12 126/192/12 112/193/12 56/194/12
f 55/191/5 23/182/5 121/184/5 126/192/5
f 59/189/5 127/190/5 113/170/5 60/169/5
f 128/195/10 145/196/10 110/78/10 114/51/10
f 145/196/9 144/197/9 109/1/9 110/78/9
f 128/195/7 114/51/7 112/51/7 147/195/7
f 144/197/1 142/198/1 107/2/1 109/1/1
f 77/122/1 66/142/1 142/198/1 144/197/1
f 65/120/7 128/195/7 147/195/7 83/120/7
f 78/119/9 77/122/9 144/197/9 145/196/9
f 65/120/10 78/119/10 145/196/10 128/195/10
f 123/167/3 115/166/3 129/133/3 137/123/3
f 192/171/5 113/170/5 148/138/5 193/137/5
f 117/175/6 107/174/6 142/135/6 131/131/6
f 115/166/6 116/177/6 130/125/6 129/133/6
f 118/179/6 117/175/6 131/131/6 132/129/6
f 119/181/6 118/179/6 132/129/6 133/126/6
f 116/177/6 119/181/6 133/126/6 130/125/6
f 121/184/8 122/62/8 136/63/8 135/104/8
f 120/186/3 134/109/3 139/109/3 125/186/3
f 124/187/3 123/167/3 137/123/3 138/115/3
f 108/188/3 124/187/3 138/115/3 143/112/3
f 127/190/5 108/188/5 143/112/5 141/111/5
f 125/186/11 139/109/11 146/63/11 111/62/11
f 126/192/12 140/103/12 147/108/12 112/193/12
f 126/192/5 121/184/5 135/104/5 140/103/5
f 127/190/5 141/111/5 148/138/5 113/170/5
f 76/124/3 68/134/3 157/163/3 165/158/3
f 190/140/5 85/139/5 155/102/5 194/165/5
f 70/132/6 66/136/6 149/164/6 159/162/6
f 68/134/6 69/128/6 158/159/6 157/163/6
f 71/130/6 70/132/6 159/162/6 160/161/6
f 72/127/6 71/130/6 160/161/6 161/160/6
f 69/128/6 72/127/6 161/160/6 158/159/6
f 74/105/8 75/64/8 164/66/8 163/153/8
f 73/110/3 162/155/3 167/155/3 80/110/3
f 75/64/6 81/64/6 153/66/6 164/66/6
f 79/116/3 76/124/3 165/158/3 166/157/3
f 67/113/3 79/116/3 166/157/3 150/156/3
f 84/114/5 67/113/5 150/156/5 169/151/5
f 80/110/11 167/155/11 153/66/11 81/64/11
f 82/106/12 168/152/12 154/154/12 83/107/12
f 82/106/5 74/105/5 163/153/5 168/152/5
f 177/151/4 176/102/4 172/102/4 175/151/4
f 102/146/1 100/145/1 149/141/1 151/121/1
f 86/148/7 156/117/7 154/117/7 105/148/7
f 103/150/9 102/146/9 151/121/9 152/118/9
f 86/148/10 103/150/10 152/118/10 156/117/10
f 170/111/5 171/114/5 173/139/5 174/138/5
f 171/114/5 175/151/5 172/102/5 173/139/5
f 181/111/13 180/114/13 209/114/13 210/111/13
f 171/114/5 170/111/5 205/111/5 206/114/5
f 178/138/2 181/111/2 170/111/2 174/138/2
f 178/138/2 174/138/2 185/138/2 186/138/2
f 155/102/9 85/139/9 179/139/9 176/102/9
f 148/138/2 141/111/2 181/111/2 178/138/2
f 141/111/3 84/114/3 180/114/3 181/111/3
f 84/114/3 169/151/3 177/151/3 180/114/3
f 169/151/4 155/102/4 176/102/4 177/151/4
f 85/139/9 148/138/9 178/138/9 179/139/9
f 187/139/9 186/138/9 185/138/9 184/139/9
f 182/102/9 187/139/9 184/139/9 183/102/9
f 176/102/6 179/139/6 187/139/6 182/102/6
f 174/138/5 173/139/5 184/139/5 185/138/5
f 179/139/6 178/138/6 186/138/6 187/139/6
f 173/139/5 172/102/5 183/102/5 184/139/5
f 197/199/5 190/140/5 194/165/5 201/200/5
f 199/201/5 192/171/5 193/137/5 200/202/5
f 195/203/5 188/168/5 192/171/5 199/201/5
f 201/200/5 194/165/5 191/17/5 198/204/5
f 200/202/5 193/137/5 190/140/5 197/199/5
f 198/204/5 191/17/5 189/20/5 196/205/5
f 92/59/5 198/204/5 196/205/5 20/60/5
f 162/155/5 201/200/5 198/204/5 92/59/5
f 21/185/5 195/203/5 199/201/5 120/186/5
f 120/186/5 199/201/5 200/202/5 134/109/5
f 134/109/2 200/202/2 202/109/2
f 203/110/14 197/199/14 201/200/14 204/155/14
f 162/155/15 73/110/15 203/110/15 204/155/15
f 201/200/4 162/155/4 204/155/4
f 73/110/15 134/109/15 202/109/15 203/110/15
f 200/202/14 197/199/14 203/110/14 202/109/14
f 209/114/6 208/151/6 207/151/6 206/114/6
f 210/111/6 209/114/6 206/114/6 205/111/6
f 175/151/5 171/114/5 206/114/5 207/151/5
f 180/114/13 177/151/13 208/151/13 209/114/13
f 170/111/2 181/111/2 210/111/2 205/111/2
f 177/151/4 175/151/4 207/151/4 208/151/4
f 104/92/6 53/92/6 26/92/6 94/56/6 164/66/6 153/66/6
l 153 136
